<svg xmlns="http://www.w3.org/2000/svg" width="96" height="96" viewBox="0 0 96 96">
  <defs>
    <linearGradient id="g" x1="0" x2="1" y1="0" y2="1">
      <stop offset="0%" stop-color="#ee4d2d"/>
      <stop offset="100%" stop-color="#ff7a45"/>
    </linearGradient>
  </defs>
  <rect width="96" height="96" rx="24" fill="url(#g)"/>
  <path d="M23 55c10-11 20-13 30-13 10 0 16 3 23 8 3 2 3 6 0 8-3 2-7 2-10 0-5-3-9-5-17-5-8 0-14 3-20 9-2 2-6 3-8 1s-2-5 2-8z" fill="white"/>
  <circle cx="67" cy="59" r="5" fill="white"/>
</svg>
