<svg xmlns="http://www.w3.org/2000/svg" width="640" height="640" viewBox="0 0 640 640">
  <defs>
    <linearGradient id="bg" x1="0" x2="1" y1="0" y2="1">
      <stop offset="0%" stop-color="#fff7f3"/>
      <stop offset="100%" stop-color="#f8fafc"/>
    </linearGradient>
  </defs>
  <rect width="640" height="640" rx="48" fill="url(#bg)"/>
  <path d="M135 348c74-71 145-98 233-98 50 0 94 15 139 45 22 14 25 44 6 62-18 18-48 20-69 8-31-19-56-27-94-27-58 0-105 18-154 63-17 16-43 16-60-1-17-17-16-43-1-52z" fill="#ee4d2d" opacity=".9"/>
  <circle cx="477" cy="359" r="30" fill="#111827" opacity=".92"/>
  <text x="320" y="530" text-anchor="middle" fill="#64748b" font-size="34" font-family="Arial">SneakerHub</text>
</svg>
